{"title":"Black Lagoon eps 1-29","uid":9472140,"size":2016236744,"categoryP":"video","categoryS":"tv_shows","magnet":"?xt=urn:btih:10fd2fcb58f070cf46fcef5b1c598552f60ec508&amp;dn=Black+Lagoon+eps+1-29&amp;tr=udp%3A%2F%2Ftracker.openbittorrent.com%3A80&amp;tr=udp%3A%2F%2Fopen.demonii.com%3A1337&amp;tr=udp%3A%2F%2Ftracker.coppersurfer.tk%3A6969&amp;tr=udp%3A%2F%2Fexodus.desync.com%3A6969","seeders":4,"leechers":1,"uploader":"p7trick","files":-1,"time":1389604504,"description":"downloaded from watchcartoononline\n\nBlack Lagoon 1 ENGLISH DUBBED eps 1-12\nBlack Lagoon 2nd Barrage ENGLISH DUBBED eps 1-12\nBlack Lagoon: Roberta`s Blood Trail ENGNLISH DUBBED eps 1-5\n_________________________________________________________\n\n\nFormat                                   : Flash Video\nFile size                                : 50.8 MiB\nDuration                                 : 23mn 27s\nOverall bit rate                         : 303 Kbps\n\nVideo\nFormat                                   : AVC\nFormat/Info                              : Advanced Video Codec\nFormat profile                           : &lt;a class=&quot;__cf_email__&quot; href=&quot;/cdn-cgi/l/email-protection&quot; data-cfemail=&quot;a3ebcac4cbe3ef908d93&quot;&gt;[email&amp;#160;protected]&lt;/a&gt;&lt;script cf-hash='f9e31' type=&quot;text/javascript&quot;&gt;\n/* &lt;![CDATA[ */!function(){try{var t=&quot;currentScript&quot;in document?document.currentScript:function(){for(var t=document.getElementsByTagName(&quot;script&quot;),e=t.length;e--;)if(t[e].getAttribute(&quot;cf-hash&quot;))return t[e]}();if(t&amp;&amp;t.previousSibling){var e,r,n,i,c=t.previousSibling,a=c.getAttribute(&quot;data-cfemail&quot;);if(a){for(e=&quot;&quot;,r=parseInt(a.substr(0,2),16),n=2;a.length-n;n+=2)i=parseInt(a.substr(n,2),16)^r,e+=String.fromCharCode(i);e=document.createTextNode(e),c.parentNode.replaceChild(e,c)}}}catch(u){}}();/* ]]&gt; */&lt;/script&gt;\nFormat settings, CABAC                   : Yes\nFormat settings, ReFrames                : 5 frames\nCodec ID                                 : 7\nDuration                                 : 23mn 27s\nBit rate                                 : 193 Kbps\nWidth                                    : 720 pixels\nHeight                                   : 408 pixels\nDisplay aspect ratio                     : 16:9\nFrame rate mode                          : Constant\nFrame rate                               : 29.970 fps\nColor space                              : YUV\nChroma subsampling                       : 4:2:0\nBit depth                                : 8 bits\nScan type                                : Progressive\nBits/(Pixel*Frame)                       : 0.022\nStream size                              : 33.6 MiB (66%)\nWriting library                          : x264 core 125 r2200 999b753\n\nAudio\nFormat                                   : AAC\nFormat/Info                              : Advanced Audio Codec\nFormat profile                           : LC\nCodec ID                                 : 10\nDuration                                 : 23mn 27s\nBit rate                                 : 94.4 Kbps\nChannel(s)                               : 2 channels\nChannel positions                        : Front: L R\nSampling rate                            : 44.1 KHz\nCompression mode                         : Lossy\nStream size                              : 16.8 MiB (33%)\n\n_________________________________________________________\n\nSummary:\nWhen Okajima Rokuro (aka Rock) visits Southeast Asia carrying a top secret disk, he is kidnapped by pirates riding in the torpedo boat, Black Lagoon. Although he thought he would be rescued soon, the company actually abandons him, and sends mercenaries to retrieve the secret disk. He narrowly escapes with his life, but has nowhere to go. He gives up his name and past, and resolves to live as a member of the Black Lagoon.\n\n_________________________________________________________\n\nFor updates/requests:\nTwitter - @p7tricktorrent\nFacebook - /p7tricktorrent\nTPB - /user/p7trick/\nKAT - /user/iPirate7\n_________________________________________________________\n\nSEED!\n\nshare ratio:\n&quot;Scumbag = 0.1:1\nLeecher = 0.999:1\nMinimum = 1:1\nGood = 3:1\nGreat = 5:1\nAwesome = 10:1\n1337 = 100:1&quot;\t\t\t\t\t","torrent":{"xt":"urn:btih:10fd2fcb58f070cf46fcef5b1c598552f60ec508","amp;dn":"Black+Lagoon+eps+1-29","amp;tr":["udp%3A%2F%2Ftracker.openbittorrent.com%3A80","udp%3A%2F%2Fopen.demonii.com%3A1337","udp%3A%2F%2Ftracker.coppersurfer.tk%3A6969","udp%3A%2F%2Fexodus.desync.com%3A6969"],"infoHash":"10fd2fcb58f070cf46fcef5b1c598552f60ec508","infoHashBuffer":{"type":"Buffer","data":[16,253,47,203,88,240,112,207,70,252,239,91,28,89,133,82,246,14,197,8]},"announce":[],"urlList":[]}}